{
  "ffprobe": {
    "audio_streams": [
      {
        "avg_frame_rate": "0/0",
        "bit_rate": "1152000",
        "bits_per_raw_sample": "24",
        "bits_per_sample": 24,
        "channels": 1,
        "codec_long_name": "PCM signed 24-bit little-endian",
        "codec_name": "pcm_s24le",
        "codec_tag": "0x0000",
        "codec_tag_string": "[0][0][0][0]",
        "codec_time_base": "1/48000",
        "codec_type": "audio",
        "disposition": {
          "attached_pic": 0,
          "clean_effects": 0,
          "comment": 0,
          "default": 0,
          "dub": 0,
          "forced": 0,
          "hearing_impaired": 0,
          "karaoke": 0,
          "lyrics": 0,
          "original": 0,
          "timed_thumbnails": 0,
          "visual_impaired": 0
        },
        "duration": "6718.800000",
        "duration_ts": 322502400,
        "index": 1,
        "r_frame_rate": "0/0",
        "sample_fmt": "s32",
        "sample_rate": "48000",
        "start_pts": 0,
        "start_time": "0.000000",
        "tags": {
          "file_package_name": "Source Package",
          "file_package_umid": "0x060A2B340101010501010D12138B6E2EF884620232890580C4FB14BD61F02ED6",
          "track_name": "Track 2"
        },
        "time_base": "1/48000"
      },
      {
        "avg_frame_rate": "0/0",
        "bit_rate": "1152000",
        "bits_per_raw_sample": "24",
        "bits_per_sample": 24,
        "channels": 1,
        "codec_long_name": "PCM signed 24-bit little-endian",
        "codec_name": "pcm_s24le",
        "codec_tag": "0x0000",
        "codec_tag_string": "[0][0][0][0]",
        "codec_time_base": "1/48000",
        "codec_type": "audio",
        "disposition": {
          "attached_pic": 0,
          "clean_effects": 0,
          "comment": 0,
          "default": 0,
          "dub": 0,
          "forced": 0,
          "hearing_impaired": 0,
          "karaoke": 0,
          "lyrics": 0,
          "original": 0,
          "timed_thumbnails": 0,
          "visual_impaired": 0
        },
        "duration": "6718.800000",
        "duration_ts": 322502400,
        "index": 2,
        "r_frame_rate": "0/0",
        "sample_fmt": "s32",
        "sample_rate": "48000",
        "start_pts": 0,
        "start_time": "0.000000",
        "tags": {
          "file_package_name": "Source Package",
          "file_package_umid": "0x060A2B340101010501010D12138B6E2EF884620232890580C4FB14BD61F02ED6",
          "track_name": "Track 3"
        },
        "time_base": "1/48000"
      },
      {
        "avg_frame_rate": "0/0",
        "bit_rate": "1152000",
        "bits_per_raw_sample": "24",
        "bits_per_sample": 24,
        "channels": 1,
        "codec_long_name": "PCM signed 24-bit little-endian",
        "codec_name": "pcm_s24le",
        "codec_tag": "0x0000",
        "codec_tag_string": "[0][0][0][0]",
        "codec_time_base": "1/48000",
        "codec_type": "audio",
        "disposition": {
          "attached_pic": 0,
          "clean_effects": 0,
          "comment": 0,
          "default": 0,
          "dub": 0,
          "forced": 0,
          "hearing_impaired": 0,
          "karaoke": 0,
          "lyrics": 0,
          "original": 0,
          "timed_thumbnails": 0,
          "visual_impaired": 0
        },
        "duration": "6718.800000",
        "duration_ts": 322502400,
        "index": 3,
        "r_frame_rate": "0/0",
        "sample_fmt": "s32",
        "sample_rate": "48000",
        "start_pts": 0,
        "start_time": "0.000000",
        "tags": {
          "file_package_name": "Source Package",
          "file_package_umid": "0x060A2B340101010501010D12138B6E2EF884620232890580C4FB14BD61F02ED6",
          "track_name": "Track 4"
        },
        "time_base": "1/48000"
      },
      {
        "avg_frame_rate": "0/0",
        "bit_rate": "1152000",
        "bits_per_raw_sample": "24",
        "bits_per_sample": 24,
        "channels": 1,
        "codec_long_name": "PCM signed 24-bit little-endian",
        "codec_name": "pcm_s24le",
        "codec_tag": "0x0000",
        "codec_tag_string": "[0][0][0][0]",
        "codec_time_base": "1/48000",
        "codec_type": "audio",
        "disposition": {
          "attached_pic": 0,
          "clean_effects": 0,
          "comment": 0,
          "default": 0,
          "dub": 0,
          "forced": 0,
          "hearing_impaired": 0,
          "karaoke": 0,
          "lyrics": 0,
          "original": 0,
          "timed_thumbnails": 0,
          "visual_impaired": 0
        },
        "duration": "6718.800000",
        "duration_ts": 322502400,
        "index": 4,
        "r_frame_rate": "0/0",
        "sample_fmt": "s32",
        "sample_rate": "48000",
        "start_pts": 0,
        "start_time": "0.000000",
        "tags": {
          "file_package_name": "Source Package",
          "file_package_umid": "0x060A2B340101010501010D12138B6E2EF884620232890580C4FB14BD61F02ED6",
          "track_name": "Track 5"
        },
        "time_base": "1/48000"
      }
    ],
    "format": {
      "bit_rate": "131072040",
      "duration": "6718.800000",
      "filename": "/mnt/archive2/UEFA/202003/9619210004/9619210004_original.mxf",
      "filename_extension": "mxf",
      "format_long_name": "MXF (Material eXchange Format)",
      "format_name": "mxf",
      "nb_programs": 0,
      "probe_score": 100,
      "size": "110080853040",
      "start_time": "0.000000",
      "streams_attachment_count": 0,
      "streams_audio_count": 4,
      "streams_count": 5,
      "streams_data_count": 0,
      "streams_image_count": 0,
      "streams_subtitle_count": 0,
      "streams_video_count": 1
    },
    "video_streams": [
      {
        "avg_frame_rate": "25/1",
        "bits_per_raw_sample": "8",
        "codec_long_name": "VC3/DNxHD",
        "codec_name": "dnxhd",
        "codec_tag": "0x0000",
        "codec_tag_string": "[0][0][0][0]",
        "codec_time_base": "1/25",
        "codec_type": "video",
        "coded_height": 1088,
        "coded_width": 1920,
        "color_space": "bt709",
        "display_aspect_ratio": "16:9",
        "disposition": {
          "attached_pic": 0,
          "clean_effects": 0,
          "comment": 0,
          "default": 0,
          "dub": 0,
          "forced": 0,
          "hearing_impaired": 0,
          "karaoke": 0,
          "lyrics": 0,
          "original": 0,
          "timed_thumbnails": 0,
          "visual_impaired": 0
        },
        "duration": "6718.800000",
        "duration_ts": 167970,
        "field_order": "tt",
        "has_b_frames": 0,
        "height": 1080,
        "index": 0,
        "level": -99,
        "pix_fmt": "yuv422p",
        "profile": "DNXHD",
        "r_frame_rate": "25/1",
        "refs": 1,
        "sample_aspect_ratio": "1:1",
        "start_pts": 0,
        "start_time": "0.000000",
        "tags": {
          "file_package_name": "Source Package",
          "file_package_umid": "0x060A2B340101010501010D12138B6E2EF884620232890580C4FB14BD61F02ED6",
          "track_name": "Track 1"
        },
        "time_base": "1/25",
        "width": 1920
      }
    ]
  },
  "mediainfo": {
    "audio_streams": [
      {
        "BitDepth": 24,
        "BitRate": 1152000,
        "BitRate_Mode": "CBR",
        "Channels": 1,
        "CodecID": "0D01030102060300",
        "Delay": "0.000",
        "Delay_DropFrame": "No",
        "Delay_Source": "Container",
        "Duration": "6718.800",
        "Format": "PCM",
        "Format_Settings_Endianness": "Little",
        "Format_Settings_Wrapping": "Frame (AES)",
        "FrameCount": 167970,
        "FrameRate": "25.000",
        "ID": 768,
        "SamplesPerFrame": 1920,
        "SamplingCount": 322502400,
        "SamplingRate": 48000,
        "StreamOrder": 1,
        "StreamSize": 967507200,
        "StreamSize_Proportion": "0.00879",
        "extra": {
          "BlockAlignment": 3,
          "Delay_SDTI": 0,
          "Locked": "Yes"
        }
      },
      {
        "BitDepth": 24,
        "BitRate": 1152000,
        "BitRate_Mode": "CBR",
        "Channels": 1,
        "CodecID": "0D01030102060300",
        "Delay": "0.000",
        "Delay_DropFrame": "No",
        "Delay_Source": "Container",
        "Duration": "6718.800",
        "Format": "PCM",
        "Format_Settings_Endianness": "Little",
        "Format_Settings_Wrapping": "Frame (AES)",
        "FrameCount": 167970,
        "FrameRate": "25.000",
        "ID": 1024,
        "SamplesPerFrame": 1920,
        "SamplingCount": 322502400,
        "SamplingRate": 48000,
        "StreamOrder": 2,
        "StreamSize": 967507200,
        "StreamSize_Proportion": "0.00879",
        "extra": {
          "BlockAlignment": 3,
          "Delay_SDTI": 0,
          "Locked": "Yes"
        }
      },
      {
        "BitDepth": 24,
        "BitRate": 1152000,
        "BitRate_Mode": "CBR",
        "Channels": 1,
        "CodecID": "0D01030102060300",
        "Delay": "0.000",
        "Delay_DropFrame": "No",
        "Delay_Source": "Container",
        "Duration": "6718.800",
        "Format": "PCM",
        "Format_Settings_Endianness": "Little",
        "Format_Settings_Wrapping": "Frame (AES)",
        "FrameCount": 167970,
        "FrameRate": "25.000",
        "ID": 1280,
        "SamplesPerFrame": 1920,
        "SamplingCount": 322502400,
        "SamplingRate": 48000,
        "StreamOrder": 3,
        "StreamSize": 967507200,
        "StreamSize_Proportion": "0.00879",
        "extra": {
          "BlockAlignment": 3,
          "Delay_SDTI": 0,
          "Locked": "Yes"
        }
      },
      {
        "BitDepth": 24,
        "BitRate": 1152000,
        "BitRate_Mode": "CBR",
        "Channels": 1,
        "CodecID": "0D01030102060300",
        "Delay": "0.000",
        "Delay_DropFrame": "No",
        "Delay_Source": "Container",
        "Duration": "6718.800",
        "Format": "PCM",
        "Format_Settings_Endianness": "Little",
        "Format_Settings_Wrapping": "Frame (AES)",
        "FrameCount": 167970,
        "FrameRate": "25.000",
        "ID": 1536,
        "SamplesPerFrame": 1920,
        "SamplingCount": 322502400,
        "SamplingRate": 48000,
        "StreamOrder": 4,
        "StreamSize": 967507200,
        "StreamSize_Proportion": "0.00879",
        "extra": {
          "BlockAlignment": 3,
          "Delay_SDTI": 0,
          "Locked": "Yes"
        }
      }
    ],
    "format": {
      "AudioCount": 4,
      "Duration": "6718.800",
      "Encoded_Application_CompanyName": "Adobe Inc.",
      "Encoded_Application_Name": "Premiere Pro",
      "Encoded_Application_Version": "1.0.0.0.1",
      "Encoded_Date": "2020-03-24 11:06:50.000",
      "Encoded_Library_Name": "Mac OS X",
      "Encoded_Library_Version": "5.1.3.0.1",
      "FileExtension": "mxf",
      "FileSize": 110080853040,
      "File_Modified_Date": "UTC 2020-05-12 13:17:53",
      "File_Modified_Date_Local": "2020-05-12 13:17:53",
      "FooterSize": 1072,
      "Format": "MXF",
      "Format_Commercial_IfAny": "DNxHD 120",
      "Format_Profile": "OP-1a",
      "Format_Settings": "Closed / Complete",
      "Format_Version": "1.2",
      "FrameCount": 167970,
      "FrameRate": "25.000",
      "OtherCount": 3,
      "OverallBitRate": 131072040,
      "PackageName": "Source Package",
      "StreamSize": 4386066480,
      "VideoCount": 1,
      "filename": "/mnt/archive2/UEFA/202003/9619210004/9619210004_original.mxf",
      "streams_attachment_count": 0,
      "streams_audio_count": 4,
      "streams_count": 5,
      "streams_data_count": 0,
      "streams_image_count": 0,
      "streams_other_count": 0,
      "streams_subtitle_count": 0,
      "streams_video_count": 1
    },
    "other_streams": [
      {
        "Format": "MXF TC",
        "ID": "0-Material",
        "TimeCode_FirstFrame": "00:00:00:00",
        "TimeCode_Settings": "Material Package",
        "TimeCode_Striped": "Yes",
        "Type": "Time code"
      },
      {
        "Format": "MXF TC",
        "ID": "0-Source",
        "TimeCode_FirstFrame": "00:00:00:00",
        "TimeCode_Settings": "Source Package",
        "TimeCode_Striped": "Yes",
        "Type": "Time code"
      },
      {
        "Format": "SMPTE TC",
        "MuxingMode": "SDTI",
        "TimeCode_FirstFrame": "00:00:00:00",
        "Type": "Time code"
      }
    ],
    "video_streams": [
      {
        "BitDepth": 8,
        "BitRate": 121241600,
        "BitRate_Mode": "CBR",
        "ChromaSubsampling": "4:2:2",
        "CodecID": "0D01030102110100-0401020271080000",
        "ColorSpace": "YUV",
        "Delay": "0.000",
        "DisplayAspectRatio": "1.778",
        "Duration": "6718.800",
        "Format": "VC-3",
        "Format_Commercial_IfAny": "DNxHD 120",
        "Format_Level": "SQ",
        "Format_Profile": "HD",
        "Format_Settings_Wrapping": "Frame",
        "Format_Version": 1,
        "FrameCount": 167970,
        "FrameRate": "25.000",
        "Height": 1080,
        "ID": 512,
        "PixelAspectRatio": "1.000",
        "ScanOrder": "TFF",
        "ScanType": "Interlaced",
        "StreamOrder": 0,
        "StreamSize": 101824757760,
        "Width": 1920,
        "extra": {
          "Delay_SDTI": 0
        }
      }
    ]
  }
}
